

Language: English
Genre:Comedy | Romance  http://www.imdb.com/title/tt1340161/
Source:x264-PFa

General
Complete name :The.Prince.And.Me.4.2010.BRRip.H264.Feel-Free
Format : MPEG-4
Format profile : Base Media
Codec ID : isom
File size : 1.54 GiB
Duration : 1h 33mn
Overall bit rate : 2 376 Kbps
Video #1
ID : 1
Format : AVC
Format/Info : Advanced Video Codec
Format profile : Baseline@L5.1
Format settings, CABAC : No
Format settings, ReFrames : 1 frame
Codec ID : avc1
Codec ID/Info : Advanced Video Coding
Duration : 1h 33mn
Bit rate mode : Variable
Bit rate : 2 052 Kbps
Width : 720 pixels
Height : 384 pixels
Display aspect ratio : 1.875
Frame rate mode : Constant
Frame rate : 24.390 fps
Resolution : 24 bits
Colorimetry : 4:2:0
Scan type : Progressive
Bits/(Pixel*Frame) : 0.304
Stream size : 1.33 GiB (86%)
Audio #2
ID : 2
Format : AAC
Format/Info : Advanced Audio Codec
Format version : Version 4
Format profile : LC
Format settings, SBR : No
Codec ID : 40
Duration : 1h 33mn
Bit rate mode : Variable
Bit rate : 320 Kbps
Channel(s) : 6 channels
Channel positions : Front: L C R, Rear: L R, LFE
Sampling rate : 48.0 KHz
Resolution : 16 bits
Stream size : 213 MiB (13%)

Plot:
King Edvard (Chris Geere) and Queen Paige (Cam Heskin) journey to
Asia to attend the wedding of Princess Myra of Sangyoon (Ase Wang)
and find themselves on the adventure of a lifetime when things
don't go as smoothly as planned. Upon arriving in Sangyoon, the
young King and Queen discover that the Myra is desperate to get
out of the arranged marriage. Her prospective future husband Kah
Prinya Intach) is downright malevolent, and Myra's true heart
lies with Alu (Amarin Cholvibul), a kindly young elephant handler
When word of Myra and Alu's romance gets out, Alu is imprisoned
and the sacred wedding elephant vanishes into the dense jungle
Now, in order to ensure a happy ending for their dear friend
Edvard and Paige set out to track down the elephant, free Alu
and convince Myra's father that the only way his daughter will
ever be happy is to marry the one man she truly loves

 
http://www.youtube.com/watch?v=HpHWocQcFek&feature=player_embedded
 
http://www.starshare.ro/bitbucket/The.Prince.And.Me.4.2010.BRRip.H264.Feel-Free.mp4_thumbs_%5B2010.09.26_17.22.28%5D.jpg